<?xml version="1.0" encoding="utf-8"?>
<!-- Generator: Adobe Illustrator 16.0.0, SVG Export Plug-In . SVG Version: 6.00 Build 0)  -->
<!DOCTYPE svg PUBLIC "-//W3C//DTD SVG 1.1//EN" "http://www.w3.org/Graphics/SVG/1.1/DTD/svg11.dtd">
<svg version="1.1" id="Layer_1" xmlns="http://www.w3.org/2000/svg" xmlns:xlink="http://www.w3.org/1999/xlink" x="0px" y="0px"
	 width="1396.484px" height="1090.836px" viewBox="0 0 1396.484 1090.836" enable-background="new 0 0 1396.484 1090.836"
	 xml:space="preserve">
<g id="Layer_1_1_" display="none">
	
		<image display="inline" overflow="visible" enable-background="new    " width="2200" height="1142" xlink:href="1E591BC25A127942.jpg"  transform="matrix(1 0 0 1 -4.7246 -0.0547)">
	</image>
</g>
<g id="Layer_1_copy" display="none">
	
		<image display="inline" overflow="visible" enable-background="new    " width="2200" height="1142" xlink:href="1E591BC25A127946.jpg"  transform="matrix(1 0 0 1 -4.7246 -0.0547)">
	</image>
</g>
<g id="Layer_2">
	<polygon display="none" fill="#FCFCFC" fill-opacity="0" points="674.052,433.232 674.052,789.262 1074.683,633.473 	"/>
	<path fill="none" stroke="#FFFFFF" stroke-miterlimit="10" d="M1034.029,684.217"/>
	
		<linearGradient id="SVGID_1_" gradientUnits="userSpaceOnUse" x1="1180.2754" y1="99.8843" x2="1180.2754" y2="99.8843" gradientTransform="matrix(1 0 0 1 118 547.8896)">
		<stop  offset="0" style="stop-color:#FFFFFF"/>
		<stop  offset="1" style="stop-color:#000000"/>
	</linearGradient>
	<path display="none" fill="none" stroke="url(#SVGID_1_)" stroke-width="2" stroke-miterlimit="10" d="M1298.275,647.774"/>
	<line display="none" fill="none" stroke="#FFFFFF" stroke-miterlimit="10" x1="569.042" y1="380.746" x2="1074.683" y2="633.473"/>
</g>
<path fill="none" stroke="#FFFFFF" stroke-width="70" stroke-miterlimit="10" d="M1214.761,788.918c-14.938,0-130.067,0-220.565,0
	c-72.117,0-111.338-22.317-111.338-127.248c0-134.192,0-373.377,0-465.864c0-21.834-9.112-97.551-95.64-97.551
	c-85.095-0.018-96.164,74.98-95.932,97.087c-0.473,95.679-0.164,499.585-0.232,663.169c-0.032,77.763,74.683,90.084,105.853,90.084
	c131.869,0,112.037,0,228.323,0c137.092,0,170.012,0,188.936,0c54.669,0,84.383-43.629,83.208-80.552
	C1296.16,829.885,1267.358,788.918,1214.761,788.918z"/>
<g id="Layer_7">
	<g id="Layer_8">
	</g>
	<g id="Layer_6">
		<path fill="#FFFFFF" d="M109.796,104.872c-0.354,100.699-0.77,785.01,0,838.475c-0.434,106.949,684.243,12.848,684.243-397.666
			C794.039,132.374,109.362-10.362,109.796,104.872z M240.498,795.399c0.618-48.082,0.173-476.494,0-530.375
			c-0.173-53.858,406.072,53.812,415.386,273.723C664.997,753.942,239.88,843.493,240.498,795.399z"/>
		
			<text transform="matrix(1 0 0 1 461.1938 578.6411)" display="none" fill="none" stroke="#FFFFFF" stroke-width="80" stroke-miterlimit="10" enable-background="new    " font-family="'Skia-Regular'" font-size="120">AVID</text>
		
			<text transform="matrix(1 0 0 1 1145.1445 591.3354)" display="none" fill="none" stroke="#FFFFFF" stroke-width="80" stroke-miterlimit="10" enable-background="new    " font-family="'Skia-Regular'" font-size="120">EEN</text>
	</g>
</g>
</svg>
